# xmcd
#
# Track frame offsets:
#	150
#	15382
#	27638
#	41064
#	55816
#	72648
#	87430
#	102051
#	114690
#	131893
#	145180
#
# Disc length: 2144 seconds
#
# Revision: 0
# Processed by: cddbd v1.5.2PL0 Copyright (c) Steve Scherf et al.
# Submitted via: EasyCDDAExtractor 11.6.0.1
#
DISCID=9f085e0b
DTITLE=张艾嘉 - [2005] 惜别
DYEAR=2005
DGENRE=
TTITLE0=惜别
TTITLE1=融融的爱意
TTITLE2=If You Love Me (Let Me Know)
TTITLE3=我怎么能忘记
TTITLE4=就这样约定
TTITLE5=诗意
TTITLE6=青青河畔
TTITLE7=缘份
TTITLE8=Diamonds and Rust
TTITLE9=初相逢
TTITLE10=诺言
EXTD=
EXTT0=
EXTT1=
EXTT2=
EXTT3=
EXTT4=
EXTT5=
EXTT6=
EXTT7=
EXTT8=
EXTT9=
EXTT10=
PLAYORDER=
